<?xml version="1.0" encoding="utf-8"?>
<!-- Generator: Adobe Illustrator 21.0.0, SVG Export Plug-In . SVG Version: 6.00 Build 0)  -->
<svg version="1.1" id="Layer_1" xmlns="http://www.w3.org/2000/svg" xmlns:xlink="http://www.w3.org/1999/xlink" x="0px" y="0px"
	 viewBox="0 0 93 93" style="enable-background:new 0 0 93 93;fill:#f4f4f4;" xml:space="preserve">
<path class="st0" d="M79.1,81.3c-0.6,0-1.1-0.2-1.5-0.6L12.8,15.9c-0.9-0.8-1-2.2-0.2-3.1c0.8-0.9,2.2-1,3.1-0.2
	c0.1,0.1,0.2,0.1,0.2,0.2l64.9,64.8c0.8,0.8,0.8,2.2,0,3.1C80.2,81.1,79.7,81.3,79.1,81.3"/>
<path class="st0" d="M-32.3,34.8c-0.6,0-1.1-0.2-1.5-0.6c-0.4-0.4-0.6-1-0.6-1.5c0-0.6,0.2-1.1,0.6-1.5L31-33.8
	c0.4-0.4,1-0.6,1.5-0.6c0.6,0,1.1,0.2,1.5,0.6c0.8,0.8,0.8,2.2,0,3.1l-64.8,64.8C-31.2,34.5-31.7,34.8-32.3,34.8"/>
<path class="st0" d="M60.8,34.8c-1.2,0-2.2-1-2.2-2.2c0-0.6,0.2-1.1,0.6-1.5l64.8-64.8c0.4-0.4,1-0.6,1.5-0.6c0.6,0,1.1,0.2,1.5,0.6
	c0.4,0.4,0.6,1,0.6,1.5c0,0.6-0.2,1.1-0.6,1.5L62.4,34.1C62,34.5,61.4,34.8,60.8,34.8"/>
<path class="st0" d="M-32.3,127.9c-0.6,0-1.1-0.2-1.5-0.6c-0.4-0.4-0.6-1-0.6-1.5c0-0.6,0.2-1.1,0.6-1.5L31,59.4
	c0.8-0.9,2.2-1,3.1-0.2s1,2.2,0.2,3.1c-0.1,0.1-0.1,0.2-0.2,0.2l-64.8,64.9C-31.2,127.7-31.7,127.9-32.3,127.9"/>
<path class="st0" d="M60.8,127.9c-1.2,0-2.2-1-2.2-2.2c0-0.6,0.2-1.1,0.6-1.5l64.8-64.8c0.8-0.9,2.2-1,3.1-0.2s1,2.2,0.2,3.1
	c-0.1,0.1-0.1,0.2-0.2,0.2l-64.8,64.8C62,127.7,61.4,127.9,60.8,127.9"/>
</svg>
