<svg id="圖層_1" data-name="圖層 1" xmlns="http://www.w3.org/2000/svg" viewBox="0 0 146.51 183.65"><defs><style>.cls-1{fill:#040000;}.cls-2{fill:none;stroke:#231815;stroke-miterlimit:10;stroke-width:0.65px;}.cls-3{fill:#231815;}</style></defs><title>logo-final</title><path class="cls-1" d="M27.17,159.52l-1,1.24a70.75,70.75,0,0,0-11.16-7.55v14.34H13.44V151.31a50.41,50.41,0,0,1-11,9.42l-1-1.32q10.62-6.34,14.43-15H2v-1.55H26.54v1.55H17.62a45.87,45.87,0,0,1-2.56,4.71v2.31A87.28,87.28,0,0,1,27.17,159.52Z" transform="translate(-1.43 -2.34)"/><path class="cls-1" d="M41.45,158.77a34,34,0,0,1-8.57,8.72l-1.13-1.28A27.59,27.59,0,0,0,39.93,158Zm13-3.11H34.32V142.85H54.47Zm-1.59-1.56v-9.75h-17v9.75Zm4.38,12.27L56,167.58a53,53,0,0,0-8.95-8.45L48.14,158A72.83,72.83,0,0,1,57.26,166.37Z" transform="translate(-1.43 -2.34)"/><path class="cls-1" d="M87.36,147H73.07a35.19,35.19,0,0,1-2.13,3.24H85.13v15a1.84,1.84,0,0,1-.8,1.74,9.24,9.24,0,0,1-3.79.47q-1.14,0-2.24-.08l-.72-1.49q1.31.11,2.8.11a10.34,10.34,0,0,0,2.81-.2.74.74,0,0,0,.44-.74v-3.76H69.43a12.13,12.13,0,0,1-3.2,6.3l-1.44-.85q3.58-3.18,3.58-11.19,0-.85,0-2.14a36,36,0,0,1-5.21,4.38L62,156.65A29.63,29.63,0,0,0,71.28,147h-9v-1.49h9.9q.83-1.49,1.68-3.41l1.55.44q-.83,1.85-1.47,3H87.36Zm-3.72,12.9v-3.47H69.82a32.47,32.47,0,0,1-.14,3.47Zm0-5v-3.3H69.9v3.3Z" transform="translate(-1.43 -2.34)"/><path class="cls-1" d="M117.65,147.93H115V151h-9.24v1.79h9.69V154h-9.69v1.9h11.86v1.24H92.57v-1.24h11.78V154H94.8V152.8h9.55V151H95.21v-1.15h9.14v-1.93H92.57v-1.18h11.78v-1.87H95.21v-1.24h9.14v-1.48h1.44v1.48H115v3.11h2.62Zm-2.8,19.44h-1.49v-.94H96.94v.94H95.43V159h19.41Zm-1.49-5.3v-1.89H96.94v1.89Zm0,3.11v-1.9H96.94v1.9Zm.2-18.44v-1.87h-7.76v1.87Zm0,3.11v-1.93h-7.76v1.93Z" transform="translate(-1.43 -2.34)"/><path class="cls-1" d="M147.95,146.36H127.24v8.89a21.29,21.29,0,0,1-3.21,12l-1.27-.86a19.14,19.14,0,0,0,2.94-10.71V144.9h10a15,15,0,0,0-1.13-2.51l1.61-.35q.62,1.25,1.31,2.86h10.5Zm-1.27,6.07h-9.14V157h8.37v10.45H144.4v-1.89H131v1.89h-1.54V157H136v-9.26h1.51V151h9.14Zm-2.28,11.65v-5.51H131v5.51Z" transform="translate(-1.43 -2.34)"/><path class="cls-1" d="M18.3,182.68H16.94l-5.14-8a4.56,4.56,0,0,1-.31-.59h0a10.47,10.47,0,0,1,.05,1.33v7.23H10.41v-9.86h1.44l5,7.88c.26.41.39.63.4.68h0a11.38,11.38,0,0,1-.07-1.48v-7.07H18.3Z" transform="translate(-1.43 -2.34)"/><path class="cls-1" d="M20.93,179.25a3.85,3.85,0,0,1,1-2.77,3.42,3.42,0,0,1,2.61-1,3.12,3.12,0,0,1,2.44,1,3.87,3.87,0,0,1,.88,2.69,3.77,3.77,0,0,1-1,2.69,3.3,3.3,0,0,1-2.53,1,3.25,3.25,0,0,1-2.46-1A3.62,3.62,0,0,1,20.93,179.25Zm1.08,0a2.92,2.92,0,0,0,.65,2,2.2,2.2,0,0,0,1.74.74,2.11,2.11,0,0,0,1.72-.73,3.09,3.09,0,0,0,.61-2,3.17,3.17,0,0,0-.6-2.07,2.1,2.1,0,0,0-1.72-.73,2.18,2.18,0,0,0-1.74.75A3.08,3.08,0,0,0,22,179.2Z" transform="translate(-1.43 -2.34)"/><path class="cls-1" d="M33.49,182.61a2,2,0,0,1-1,.22q-1.82,0-1.82-2v-4.23H29.43v-.92h1.22v-1.73l1.06-.34v2.08h1.78v.92H31.71v4a1.68,1.68,0,0,0,.24,1,1,1,0,0,0,.81.31,1.13,1.13,0,0,0,.73-.24Z" transform="translate(-1.43 -2.34)"/><path class="cls-1" d="M39.08,177.87a5.43,5.43,0,0,1,1.29-3.79,4.48,4.48,0,0,1,3.49-1.42A4.2,4.2,0,0,1,47.14,174a5.16,5.16,0,0,1,1.24,3.58,5.55,5.55,0,0,1-1.26,3.79,4.77,4.77,0,0,1-6.78,0A5.13,5.13,0,0,1,39.08,177.87Zm1.14-.1a4.51,4.51,0,0,0,.94,2.94,3.08,3.08,0,0,0,2.52,1.16,3.27,3.27,0,0,0,2.63-1.1,4.44,4.44,0,0,0,.94-3,4.63,4.63,0,0,0-.91-3,3.15,3.15,0,0,0-2.57-1.1,3.19,3.19,0,0,0-2.59,1.17A4.47,4.47,0,0,0,40.22,177.77Z" transform="translate(-1.43 -2.34)"/><path class="cls-1" d="M56.63,182.68H55.57v-4q0-2.28-1.67-2.28a1.8,1.8,0,0,0-1.43.65,2.42,2.42,0,0,0-.56,1.63v4H50.85v-7h1.06v1.18h0a2.53,2.53,0,0,1,2.31-1.34,2.16,2.16,0,0,1,1.77.74,3.32,3.32,0,0,1,.61,2.16Z" transform="translate(-1.43 -2.34)"/><path class="cls-1" d="M59.44,182.68V172.26h1.06v10.42Z" transform="translate(-1.43 -2.34)"/><path class="cls-1" d="M69,175.64l-3.26,8.21Q64.88,186,63.34,186a2.7,2.7,0,0,1-.69-.08v-1a2.12,2.12,0,0,0,.65.11,1.39,1.39,0,0,0,1.29-1l.57-1.36-2.74-7h1.18l1.94,5.49c0,.08.07.24.15.5h0q0-.13.13-.49l2-5.51Z" transform="translate(-1.43 -2.34)"/><path class="cls-1" d="M74.94,182.68v-9.86H77.7a3,3,0,0,1,2,.62,2,2,0,0,1,.75,1.64,2.39,2.39,0,0,1-1.69,2.35v0a2.4,2.4,0,0,1,1.59.74,2.34,2.34,0,0,1,.6,1.67,2.59,2.59,0,0,1-.9,2,3.34,3.34,0,0,1-2.28.79ZM76,173.82v3.24h1.2a2.28,2.28,0,0,0,1.53-.47,1.63,1.63,0,0,0,.55-1.31q0-1.46-1.91-1.46Zm0,4.24v3.61h1.6a2.39,2.39,0,0,0,1.59-.49,1.67,1.67,0,0,0,.58-1.35q0-1.78-2.43-1.78Z" transform="translate(-1.43 -2.34)"/><path class="cls-1" d="M83,179.25a3.85,3.85,0,0,1,1-2.77,3.42,3.42,0,0,1,2.61-1,3.12,3.12,0,0,1,2.44,1,3.87,3.87,0,0,1,.88,2.69,3.77,3.77,0,0,1-1,2.69,3.3,3.3,0,0,1-2.53,1,3.25,3.25,0,0,1-2.46-1A3.62,3.62,0,0,1,83,179.25Zm1.08,0a2.92,2.92,0,0,0,.65,2,2.2,2.2,0,0,0,1.74.74,2.11,2.11,0,0,0,1.72-.73,3.09,3.09,0,0,0,.61-2,3.17,3.17,0,0,0-.6-2.07,2.1,2.1,0,0,0-1.72-.73,2.18,2.18,0,0,0-1.74.75A3.08,3.08,0,0,0,84.06,179.2Z" transform="translate(-1.43 -2.34)"/><path class="cls-1" d="M91.85,179.25a3.85,3.85,0,0,1,1-2.77,3.42,3.42,0,0,1,2.61-1,3.12,3.12,0,0,1,2.44,1,3.87,3.87,0,0,1,.88,2.69,3.77,3.77,0,0,1-1,2.69,3.3,3.3,0,0,1-2.53,1,3.25,3.25,0,0,1-2.46-1A3.62,3.62,0,0,1,91.85,179.25Zm1.08,0a2.92,2.92,0,0,0,.65,2,2.2,2.2,0,0,0,1.74.74,2.11,2.11,0,0,0,1.72-.73,3.09,3.09,0,0,0,.61-2,3.17,3.17,0,0,0-.6-2.07,2.1,2.1,0,0,0-1.72-.73,2.18,2.18,0,0,0-1.74.75A3.08,3.08,0,0,0,92.93,179.2Z" transform="translate(-1.43 -2.34)"/><path class="cls-1" d="M107,182.68h-1.51l-3.16-3.37h0v3.37h-1.06V172.26h1.06v6.61h0l3-3.23h1.41L103.41,179Z" transform="translate(-1.43 -2.34)"/><path class="cls-1" d="M108.36,181.25a3.33,3.33,0,0,0,2,.68q1.5,0,1.5-1a.91.91,0,0,0-.33-.73,4.85,4.85,0,0,0-1.29-.64,3.84,3.84,0,0,1-1.52-.91,1.83,1.83,0,0,1,.4-2.6,3.15,3.15,0,0,1,1.9-.56,3.92,3.92,0,0,1,1.62.32v1.11a3.18,3.18,0,0,0-1.79-.51,1.7,1.7,0,0,0-1,.28.87.87,0,0,0-.39.74.89.89,0,0,0,.27.7,4.87,4.87,0,0,0,1.22.63,4.21,4.21,0,0,1,1.61.93,1.68,1.68,0,0,1,.41,1.15,1.72,1.72,0,0,1-.77,1.49,3.37,3.37,0,0,1-2,.54,3.82,3.82,0,0,1-1.86-.43Z" transform="translate(-1.43 -2.34)"/><path class="cls-1" d="M118.6,182.61a2,2,0,0,1-1,.22q-1.82,0-1.82-2v-4.23h-1.22v-.92h1.22v-1.73l1.06-.34v2.08h1.78v.92h-1.78v4a1.68,1.68,0,0,0,.24,1,1,1,0,0,0,.81.31,1.13,1.13,0,0,0,.73-.24Z" transform="translate(-1.43 -2.34)"/><path class="cls-1" d="M120.2,179.25a3.85,3.85,0,0,1,1-2.77,3.42,3.42,0,0,1,2.61-1,3.12,3.12,0,0,1,2.44,1,3.87,3.87,0,0,1,.88,2.69,3.77,3.77,0,0,1-1,2.69,3.3,3.3,0,0,1-2.53,1,3.25,3.25,0,0,1-2.46-1A3.62,3.62,0,0,1,120.2,179.25Zm1.08,0a2.92,2.92,0,0,0,.65,2,2.2,2.2,0,0,0,1.74.74,2.11,2.11,0,0,0,1.72-.73,3.09,3.09,0,0,0,.61-2,3.17,3.17,0,0,0-.6-2.07,2.1,2.1,0,0,0-1.72-.73,2.18,2.18,0,0,0-1.74.75A3.08,3.08,0,0,0,121.28,179.2Z" transform="translate(-1.43 -2.34)"/><path class="cls-1" d="M133.17,176.73a1.38,1.38,0,0,0-.85-.22,1.43,1.43,0,0,0-1.22.71,3.26,3.26,0,0,0-.48,1.86v3.6h-1.06v-7h1.06v1.46h0a2.45,2.45,0,0,1,.74-1.16,1.68,1.68,0,0,1,1.1-.41,1.93,1.93,0,0,1,.69.1Z" transform="translate(-1.43 -2.34)"/><path class="cls-1" d="M140.49,179.42h-5a2.73,2.73,0,0,0,.64,1.87,2.19,2.19,0,0,0,1.67.65,3.46,3.46,0,0,0,2.2-.8v1a4,4,0,0,1-2.45.69,2.94,2.94,0,0,1-2.32-1,4,4,0,0,1-.85-2.71,3.89,3.89,0,0,1,.92-2.66,2.93,2.93,0,0,1,2.3-1,2.62,2.62,0,0,1,2.11.89,3.71,3.71,0,0,1,.76,2.48Zm-1.1-.94a2.33,2.33,0,0,0-.48-1.54,1.64,1.64,0,0,0-1.32-.55,1.9,1.9,0,0,0-1.35.55,2.6,2.6,0,0,0-.74,1.54Z" transform="translate(-1.43 -2.34)"/><circle class="cls-2" cx="73.98" cy="64.37" r="64.04"/><rect class="cls-3" x="36.68" y="99.32" width="11.33" height="11.33" transform="translate(-63.27 58.35) rotate(-45)"/><rect class="cls-3" x="48.25" y="81.08" width="8.43" height="25.64" transform="translate(-52.46 62.25) rotate(-45)"/><rect class="cls-3" x="59.82" y="62.83" width="5.52" height="39.95" transform="translate(-41.66 66.16) rotate(-45)"/><rect class="cls-3" x="71.39" y="44.58" width="2.61" height="54.25" transform="translate(-30.85 70.06) rotate(-45)"/><rect class="cls-3" x="81.2" y="34.05" width="5.75" height="50.41" transform="translate(-18.71 74.46) rotate(-45)"/><rect class="cls-3" x="91.01" y="23.52" width="8.88" height="46.56" transform="translate(-6.57 78.86) rotate(-45)"/><rect class="cls-3" x="100.82" y="12.98" width="12.02" height="42.71" transform="translate(5.58 83.25) rotate(-45)"/><circle class="cls-2" cx="73.98" cy="64.37" r="60.84"/></svg>